<mxfile host="Electron" modified="2024-05-26T22:29:25.191Z" agent="Mozilla/5.0 (Windows NT 10.0; Win64; x64) AppleWebKit/537.36 (KHTML, like Gecko) draw.io/24.4.8 Chrome/124.0.6367.207 Electron/30.0.6 Safari/537.36" etag="DqK5-FY6ymSj8_AAYn8R" version="24.4.8" type="device">
  <diagram name="Page-1" id="jw0_aBIyzvcWnDJMq9Lf">
    <mxGraphModel dx="880" dy="524" grid="1" gridSize="10" guides="1" tooltips="1" connect="1" arrows="1" fold="1" page="1" pageScale="1" pageWidth="1100" pageHeight="850" math="0" shadow="0">
      <root>
        <mxCell id="0" />
        <mxCell id="1" parent="0" />
        <mxCell id="mP0UTj2RNSPP4Z1qdEpz-1" value="Barang" style="whiteSpace=wrap;html=1;align=center;" parent="1" vertex="1">
          <mxGeometry x="140" y="205" width="100" height="40" as="geometry" />
        </mxCell>
        <mxCell id="mP0UTj2RNSPP4Z1qdEpz-2" value="jumlah" style="ellipse;whiteSpace=wrap;html=1;align=center;" parent="1" vertex="1">
          <mxGeometry x="130" y="90" width="100" height="40" as="geometry" />
        </mxCell>
        <mxCell id="mP0UTj2RNSPP4Z1qdEpz-3" value="nama_barang" style="ellipse;whiteSpace=wrap;html=1;align=center;" parent="1" vertex="1">
          <mxGeometry x="230" y="120" width="100" height="40" as="geometry" />
        </mxCell>
        <mxCell id="mP0UTj2RNSPP4Z1qdEpz-4" value="jenis" style="ellipse;whiteSpace=wrap;html=1;align=center;" parent="1" vertex="1">
          <mxGeometry x="250" y="160" width="100" height="40" as="geometry" />
        </mxCell>
        <mxCell id="mP0UTj2RNSPP4Z1qdEpz-5" value="merk" style="ellipse;whiteSpace=wrap;html=1;align=center;" parent="1" vertex="1">
          <mxGeometry x="40" y="120" width="100" height="40" as="geometry" />
        </mxCell>
        <mxCell id="mP0UTj2RNSPP4Z1qdEpz-6" value="kode_barang" style="ellipse;whiteSpace=wrap;html=1;align=center;fontStyle=4;" parent="1" vertex="1">
          <mxGeometry x="20" y="160" width="100" height="40" as="geometry" />
        </mxCell>
        <mxCell id="mP0UTj2RNSPP4Z1qdEpz-7" value="" style="endArrow=none;html=1;rounded=0;exitX=0.5;exitY=0;exitDx=0;exitDy=0;entryX=0.5;entryY=1;entryDx=0;entryDy=0;" parent="1" source="mP0UTj2RNSPP4Z1qdEpz-1" target="mP0UTj2RNSPP4Z1qdEpz-2" edge="1">
          <mxGeometry relative="1" as="geometry">
            <mxPoint x="80" y="280" as="sourcePoint" />
            <mxPoint x="240" y="280" as="targetPoint" />
          </mxGeometry>
        </mxCell>
        <mxCell id="mP0UTj2RNSPP4Z1qdEpz-8" value="" style="endArrow=none;html=1;rounded=0;exitX=1;exitY=0.5;exitDx=0;exitDy=0;entryX=0.5;entryY=0;entryDx=0;entryDy=0;" parent="1" source="mP0UTj2RNSPP4Z1qdEpz-5" target="mP0UTj2RNSPP4Z1qdEpz-1" edge="1">
          <mxGeometry relative="1" as="geometry">
            <mxPoint x="140" y="180" as="sourcePoint" />
            <mxPoint x="300" y="180" as="targetPoint" />
          </mxGeometry>
        </mxCell>
        <mxCell id="mP0UTj2RNSPP4Z1qdEpz-9" value="" style="endArrow=none;html=1;rounded=0;exitX=1;exitY=0.5;exitDx=0;exitDy=0;entryX=0.25;entryY=0;entryDx=0;entryDy=0;" parent="1" source="mP0UTj2RNSPP4Z1qdEpz-6" target="mP0UTj2RNSPP4Z1qdEpz-1" edge="1">
          <mxGeometry relative="1" as="geometry">
            <mxPoint x="110" y="300" as="sourcePoint" />
            <mxPoint x="270" y="300" as="targetPoint" />
          </mxGeometry>
        </mxCell>
        <mxCell id="mP0UTj2RNSPP4Z1qdEpz-10" value="" style="endArrow=none;html=1;rounded=0;exitX=0.027;exitY=0.775;exitDx=0;exitDy=0;exitPerimeter=0;entryX=0.5;entryY=0;entryDx=0;entryDy=0;" parent="1" source="mP0UTj2RNSPP4Z1qdEpz-3" target="mP0UTj2RNSPP4Z1qdEpz-1" edge="1">
          <mxGeometry relative="1" as="geometry">
            <mxPoint x="220" y="310" as="sourcePoint" />
            <mxPoint x="380" y="310" as="targetPoint" />
          </mxGeometry>
        </mxCell>
        <mxCell id="mP0UTj2RNSPP4Z1qdEpz-11" value="" style="endArrow=none;html=1;rounded=0;exitX=0;exitY=0.5;exitDx=0;exitDy=0;" parent="1" source="mP0UTj2RNSPP4Z1qdEpz-4" target="mP0UTj2RNSPP4Z1qdEpz-1" edge="1">
          <mxGeometry relative="1" as="geometry">
            <mxPoint x="250" y="300" as="sourcePoint" />
            <mxPoint x="410" y="300" as="targetPoint" />
          </mxGeometry>
        </mxCell>
        <mxCell id="mP0UTj2RNSPP4Z1qdEpz-34" value="meminjam" style="rhombus;whiteSpace=wrap;html=1;" parent="1" vertex="1">
          <mxGeometry x="150" y="350" width="80" height="65" as="geometry" />
        </mxCell>
        <mxCell id="mP0UTj2RNSPP4Z1qdEpz-35" value="" style="endArrow=none;html=1;rounded=0;entryX=0.5;entryY=1;entryDx=0;entryDy=0;" parent="1" source="9_BEJMGaAVW6kIkUqZu5-1" target="mP0UTj2RNSPP4Z1qdEpz-34" edge="1">
          <mxGeometry width="50" height="50" relative="1" as="geometry">
            <mxPoint x="380" y="540" as="sourcePoint" />
            <mxPoint x="270" y="370" as="targetPoint" />
          </mxGeometry>
        </mxCell>
        <mxCell id="mP0UTj2RNSPP4Z1qdEpz-44" value="M" style="edgeLabel;html=1;align=center;verticalAlign=middle;resizable=0;points=[];" parent="mP0UTj2RNSPP4Z1qdEpz-35" vertex="1" connectable="0">
          <mxGeometry x="-0.2533" y="2" relative="1" as="geometry">
            <mxPoint as="offset" />
          </mxGeometry>
        </mxCell>
        <mxCell id="mP0UTj2RNSPP4Z1qdEpz-36" value="" style="endArrow=none;html=1;rounded=0;exitX=0.5;exitY=0;exitDx=0;exitDy=0;entryX=0.5;entryY=1;entryDx=0;entryDy=0;" parent="1" source="mP0UTj2RNSPP4Z1qdEpz-34" target="mP0UTj2RNSPP4Z1qdEpz-1" edge="1">
          <mxGeometry width="50" height="50" relative="1" as="geometry">
            <mxPoint x="170" y="370" as="sourcePoint" />
            <mxPoint x="220" y="320" as="targetPoint" />
          </mxGeometry>
        </mxCell>
        <mxCell id="mP0UTj2RNSPP4Z1qdEpz-45" value="M" style="edgeLabel;html=1;align=center;verticalAlign=middle;resizable=0;points=[];" parent="mP0UTj2RNSPP4Z1qdEpz-36" vertex="1" connectable="0">
          <mxGeometry x="0.145" relative="1" as="geometry">
            <mxPoint as="offset" />
          </mxGeometry>
        </mxCell>
        <mxCell id="mP0UTj2RNSPP4Z1qdEpz-37" value="melakukan" style="rhombus;whiteSpace=wrap;html=1;" parent="1" vertex="1">
          <mxGeometry x="530" y="385" width="80" height="80" as="geometry" />
        </mxCell>
        <mxCell id="mP0UTj2RNSPP4Z1qdEpz-38" value="" style="endArrow=none;html=1;rounded=0;entryX=0;entryY=1;entryDx=0;entryDy=0;" parent="1" source="9_BEJMGaAVW6kIkUqZu5-1" target="mP0UTj2RNSPP4Z1qdEpz-37" edge="1">
          <mxGeometry width="50" height="50" relative="1" as="geometry">
            <mxPoint x="430" y="540" as="sourcePoint" />
            <mxPoint x="440" y="410" as="targetPoint" />
          </mxGeometry>
        </mxCell>
        <mxCell id="mP0UTj2RNSPP4Z1qdEpz-46" value="M" style="edgeLabel;html=1;align=center;verticalAlign=middle;resizable=0;points=[];" parent="mP0UTj2RNSPP4Z1qdEpz-38" vertex="1" connectable="0">
          <mxGeometry x="-0.0916" y="1" relative="1" as="geometry">
            <mxPoint as="offset" />
          </mxGeometry>
        </mxCell>
        <mxCell id="mP0UTj2RNSPP4Z1qdEpz-39" value="" style="endArrow=none;html=1;rounded=0;entryX=0.5;entryY=1;entryDx=0;entryDy=0;exitX=1;exitY=0;exitDx=0;exitDy=0;" parent="1" source="mP0UTj2RNSPP4Z1qdEpz-37" target="faee4oYJQFopLsKv9gLG-1" edge="1">
          <mxGeometry width="50" height="50" relative="1" as="geometry">
            <mxPoint x="390" y="460" as="sourcePoint" />
            <mxPoint x="625" y="240" as="targetPoint" />
          </mxGeometry>
        </mxCell>
        <mxCell id="mP0UTj2RNSPP4Z1qdEpz-51" value="M" style="edgeLabel;html=1;align=center;verticalAlign=middle;resizable=0;points=[];" parent="mP0UTj2RNSPP4Z1qdEpz-39" vertex="1" connectable="0">
          <mxGeometry x="-0.0575" y="-3" relative="1" as="geometry">
            <mxPoint y="1" as="offset" />
          </mxGeometry>
        </mxCell>
        <mxCell id="mP0UTj2RNSPP4Z1qdEpz-40" value="memiliki" style="rhombus;whiteSpace=wrap;html=1;" parent="1" vertex="1">
          <mxGeometry x="350" y="190" width="80" height="70" as="geometry" />
        </mxCell>
        <mxCell id="mP0UTj2RNSPP4Z1qdEpz-42" value="" style="endArrow=none;html=1;rounded=0;entryX=0;entryY=0.5;entryDx=0;entryDy=0;exitX=1;exitY=0.5;exitDx=0;exitDy=0;" parent="1" source="mP0UTj2RNSPP4Z1qdEpz-1" target="mP0UTj2RNSPP4Z1qdEpz-40" edge="1">
          <mxGeometry width="50" height="50" relative="1" as="geometry">
            <mxPoint x="390" y="460" as="sourcePoint" />
            <mxPoint x="440" y="410" as="targetPoint" />
          </mxGeometry>
        </mxCell>
        <mxCell id="mP0UTj2RNSPP4Z1qdEpz-54" value="M" style="edgeLabel;html=1;align=center;verticalAlign=middle;resizable=0;points=[];" parent="mP0UTj2RNSPP4Z1qdEpz-42" vertex="1" connectable="0">
          <mxGeometry x="-0.2268" y="-2" relative="1" as="geometry">
            <mxPoint as="offset" />
          </mxGeometry>
        </mxCell>
        <mxCell id="9_BEJMGaAVW6kIkUqZu5-1" value="User" style="whiteSpace=wrap;html=1;align=center;" parent="1" vertex="1">
          <mxGeometry x="310" y="530" width="100" height="40" as="geometry" />
        </mxCell>
        <mxCell id="9_BEJMGaAVW6kIkUqZu5-2" value="role" style="ellipse;whiteSpace=wrap;html=1;align=center;" parent="1" vertex="1">
          <mxGeometry x="440" y="680" width="100" height="40" as="geometry" />
        </mxCell>
        <mxCell id="9_BEJMGaAVW6kIkUqZu5-3" value="nama_user" style="ellipse;whiteSpace=wrap;html=1;align=center;" parent="1" vertex="1">
          <mxGeometry x="310" y="670" width="100" height="40" as="geometry" />
        </mxCell>
        <mxCell id="9_BEJMGaAVW6kIkUqZu5-4" value="id_user" style="ellipse;whiteSpace=wrap;html=1;align=center;fontStyle=4;" parent="1" vertex="1">
          <mxGeometry x="210" y="700" width="100" height="40" as="geometry" />
        </mxCell>
        <mxCell id="9_BEJMGaAVW6kIkUqZu5-5" value="" style="endArrow=none;html=1;rounded=0;entryX=0.5;entryY=0;entryDx=0;entryDy=0;" parent="1" source="9_BEJMGaAVW6kIkUqZu5-1" target="9_BEJMGaAVW6kIkUqZu5-2" edge="1">
          <mxGeometry relative="1" as="geometry">
            <mxPoint x="250" y="660" as="sourcePoint" />
            <mxPoint x="410" y="660" as="targetPoint" />
          </mxGeometry>
        </mxCell>
        <mxCell id="9_BEJMGaAVW6kIkUqZu5-6" value="" style="endArrow=none;html=1;rounded=0;entryX=0.6;entryY=1;entryDx=0;entryDy=0;entryPerimeter=0;" parent="1" source="9_BEJMGaAVW6kIkUqZu5-3" target="9_BEJMGaAVW6kIkUqZu5-1" edge="1">
          <mxGeometry relative="1" as="geometry">
            <mxPoint x="310" y="560" as="sourcePoint" />
            <mxPoint x="470" y="560" as="targetPoint" />
          </mxGeometry>
        </mxCell>
        <mxCell id="9_BEJMGaAVW6kIkUqZu5-7" value="" style="endArrow=none;html=1;rounded=0;exitX=0.5;exitY=0;exitDx=0;exitDy=0;entryX=0.5;entryY=1;entryDx=0;entryDy=0;" parent="1" source="9_BEJMGaAVW6kIkUqZu5-4" target="9_BEJMGaAVW6kIkUqZu5-1" edge="1">
          <mxGeometry relative="1" as="geometry">
            <mxPoint x="280" y="680" as="sourcePoint" />
            <mxPoint x="440" y="680" as="targetPoint" />
          </mxGeometry>
        </mxCell>
        <mxCell id="9_BEJMGaAVW6kIkUqZu5-8" value="user&lt;span style=&quot;background-color: initial;&quot;&gt;name&lt;/span&gt;" style="ellipse;whiteSpace=wrap;html=1;align=center;" parent="1" vertex="1">
          <mxGeometry x="190" y="630" width="100" height="40" as="geometry" />
        </mxCell>
        <mxCell id="9_BEJMGaAVW6kIkUqZu5-9" value="password" style="ellipse;whiteSpace=wrap;html=1;align=center;" parent="1" vertex="1">
          <mxGeometry x="485" y="630" width="100" height="40" as="geometry" />
        </mxCell>
        <mxCell id="9_BEJMGaAVW6kIkUqZu5-11" value="" style="endArrow=none;html=1;rounded=0;exitX=0.619;exitY=0.005;exitDx=0;exitDy=0;exitPerimeter=0;entryX=0.18;entryY=0.992;entryDx=0;entryDy=0;entryPerimeter=0;" parent="1" source="9_BEJMGaAVW6kIkUqZu5-8" target="9_BEJMGaAVW6kIkUqZu5-1" edge="1">
          <mxGeometry relative="1" as="geometry">
            <mxPoint x="320" y="640" as="sourcePoint" />
            <mxPoint x="360" y="580" as="targetPoint" />
          </mxGeometry>
        </mxCell>
        <mxCell id="9_BEJMGaAVW6kIkUqZu5-13" value="" style="endArrow=none;html=1;rounded=0;entryX=0;entryY=0;entryDx=0;entryDy=0;" parent="1" source="9_BEJMGaAVW6kIkUqZu5-1" target="9_BEJMGaAVW6kIkUqZu5-9" edge="1">
          <mxGeometry relative="1" as="geometry">
            <mxPoint x="470" y="620" as="sourcePoint" />
            <mxPoint x="630" y="620" as="targetPoint" />
          </mxGeometry>
        </mxCell>
        <mxCell id="faee4oYJQFopLsKv9gLG-1" value="Peminjaman" style="whiteSpace=wrap;html=1;align=center;" parent="1" vertex="1">
          <mxGeometry x="575" y="185" width="100" height="40" as="geometry" />
        </mxCell>
        <mxCell id="faee4oYJQFopLsKv9gLG-2" value="tgl_pinjam" style="ellipse;whiteSpace=wrap;html=1;align=center;" parent="1" vertex="1">
          <mxGeometry x="585" y="50" width="100" height="40" as="geometry" />
        </mxCell>
        <mxCell id="faee4oYJQFopLsKv9gLG-3" value="tgl_kembali" style="ellipse;whiteSpace=wrap;html=1;align=center;" parent="1" vertex="1">
          <mxGeometry x="670" y="80" width="100" height="40" as="geometry" />
        </mxCell>
        <mxCell id="faee4oYJQFopLsKv9gLG-4" value="jml_brg" style="ellipse;whiteSpace=wrap;html=1;align=center;" parent="1" vertex="1">
          <mxGeometry x="675" y="120" width="100" height="40" as="geometry" />
        </mxCell>
        <mxCell id="faee4oYJQFopLsKv9gLG-5" value="id_peminjam" style="ellipse;whiteSpace=wrap;html=1;align=center;" parent="1" vertex="1">
          <mxGeometry x="485" y="65" width="100" height="40" as="geometry" />
        </mxCell>
        <mxCell id="faee4oYJQFopLsKv9gLG-6" value="id_peminjaman" style="ellipse;whiteSpace=wrap;html=1;align=center;fontStyle=4;" parent="1" vertex="1">
          <mxGeometry x="460" y="105" width="100" height="40" as="geometry" />
        </mxCell>
        <mxCell id="faee4oYJQFopLsKv9gLG-7" value="" style="endArrow=none;html=1;rounded=0;exitX=0.5;exitY=0;exitDx=0;exitDy=0;entryX=0.5;entryY=1;entryDx=0;entryDy=0;" parent="1" source="faee4oYJQFopLsKv9gLG-1" target="faee4oYJQFopLsKv9gLG-2" edge="1">
          <mxGeometry relative="1" as="geometry">
            <mxPoint x="515" y="265" as="sourcePoint" />
            <mxPoint x="675" y="265" as="targetPoint" />
          </mxGeometry>
        </mxCell>
        <mxCell id="faee4oYJQFopLsKv9gLG-8" value="" style="endArrow=none;html=1;rounded=0;exitX=1;exitY=0.5;exitDx=0;exitDy=0;entryX=0.5;entryY=0;entryDx=0;entryDy=0;" parent="1" source="faee4oYJQFopLsKv9gLG-5" target="faee4oYJQFopLsKv9gLG-1" edge="1">
          <mxGeometry relative="1" as="geometry">
            <mxPoint x="575" y="165" as="sourcePoint" />
            <mxPoint x="735" y="165" as="targetPoint" />
          </mxGeometry>
        </mxCell>
        <mxCell id="faee4oYJQFopLsKv9gLG-9" value="" style="endArrow=none;html=1;rounded=0;exitX=1;exitY=0.5;exitDx=0;exitDy=0;entryX=0.25;entryY=0;entryDx=0;entryDy=0;" parent="1" source="faee4oYJQFopLsKv9gLG-6" target="faee4oYJQFopLsKv9gLG-1" edge="1">
          <mxGeometry relative="1" as="geometry">
            <mxPoint x="545" y="285" as="sourcePoint" />
            <mxPoint x="705" y="285" as="targetPoint" />
          </mxGeometry>
        </mxCell>
        <mxCell id="faee4oYJQFopLsKv9gLG-10" value="" style="endArrow=none;html=1;rounded=0;exitX=0.027;exitY=0.775;exitDx=0;exitDy=0;exitPerimeter=0;entryX=0.5;entryY=0;entryDx=0;entryDy=0;" parent="1" source="faee4oYJQFopLsKv9gLG-3" target="faee4oYJQFopLsKv9gLG-1" edge="1">
          <mxGeometry relative="1" as="geometry">
            <mxPoint x="655" y="295" as="sourcePoint" />
            <mxPoint x="815" y="295" as="targetPoint" />
          </mxGeometry>
        </mxCell>
        <mxCell id="faee4oYJQFopLsKv9gLG-11" value="" style="endArrow=none;html=1;rounded=0;exitX=0;exitY=0.5;exitDx=0;exitDy=0;" parent="1" source="faee4oYJQFopLsKv9gLG-4" target="faee4oYJQFopLsKv9gLG-1" edge="1">
          <mxGeometry relative="1" as="geometry">
            <mxPoint x="685" y="285" as="sourcePoint" />
            <mxPoint x="845" y="285" as="targetPoint" />
          </mxGeometry>
        </mxCell>
        <mxCell id="faee4oYJQFopLsKv9gLG-12" value="keperluan" style="ellipse;whiteSpace=wrap;html=1;align=center;" parent="1" vertex="1">
          <mxGeometry x="440" y="150" width="100" height="40" as="geometry" />
        </mxCell>
        <mxCell id="faee4oYJQFopLsKv9gLG-13" value="status" style="ellipse;whiteSpace=wrap;html=1;align=center;" parent="1" vertex="1">
          <mxGeometry x="700" y="160" width="100" height="40" as="geometry" />
        </mxCell>
        <mxCell id="faee4oYJQFopLsKv9gLG-14" value="" style="endArrow=none;html=1;rounded=0;entryX=0;entryY=0;entryDx=0;entryDy=0;exitX=1;exitY=0.5;exitDx=0;exitDy=0;" parent="1" source="faee4oYJQFopLsKv9gLG-12" target="faee4oYJQFopLsKv9gLG-1" edge="1">
          <mxGeometry relative="1" as="geometry">
            <mxPoint x="520" y="220" as="sourcePoint" />
            <mxPoint x="680" y="220" as="targetPoint" />
          </mxGeometry>
        </mxCell>
        <mxCell id="faee4oYJQFopLsKv9gLG-15" value="" style="endArrow=none;html=1;rounded=0;exitX=1;exitY=0.25;exitDx=0;exitDy=0;entryX=0.023;entryY=0.675;entryDx=0;entryDy=0;entryPerimeter=0;" parent="1" source="faee4oYJQFopLsKv9gLG-1" target="faee4oYJQFopLsKv9gLG-13" edge="1">
          <mxGeometry relative="1" as="geometry">
            <mxPoint x="630" y="310" as="sourcePoint" />
            <mxPoint x="790" y="310" as="targetPoint" />
          </mxGeometry>
        </mxCell>
        <mxCell id="faee4oYJQFopLsKv9gLG-16" value="" style="endArrow=none;html=1;rounded=0;entryX=0;entryY=0.5;entryDx=0;entryDy=0;exitX=1;exitY=0.5;exitDx=0;exitDy=0;" parent="1" source="mP0UTj2RNSPP4Z1qdEpz-40" target="faee4oYJQFopLsKv9gLG-1" edge="1">
          <mxGeometry width="50" height="50" relative="1" as="geometry">
            <mxPoint x="430" y="215" as="sourcePoint" />
            <mxPoint x="440" y="410" as="targetPoint" />
          </mxGeometry>
        </mxCell>
        <mxCell id="faee4oYJQFopLsKv9gLG-21" value="1" style="edgeLabel;html=1;align=center;verticalAlign=middle;resizable=0;points=[];" parent="faee4oYJQFopLsKv9gLG-16" vertex="1" connectable="0">
          <mxGeometry x="-0.0623" y="2" relative="1" as="geometry">
            <mxPoint as="offset" />
          </mxGeometry>
        </mxCell>
        <mxCell id="faee4oYJQFopLsKv9gLG-19" value="kode_brg" style="ellipse;whiteSpace=wrap;html=1;align=center;" parent="1" vertex="1">
          <mxGeometry x="630" y="260" width="100" height="40" as="geometry" />
        </mxCell>
        <mxCell id="faee4oYJQFopLsKv9gLG-20" value="" style="endArrow=none;html=1;rounded=0;exitX=0.5;exitY=0;exitDx=0;exitDy=0;" parent="1" source="faee4oYJQFopLsKv9gLG-19" target="faee4oYJQFopLsKv9gLG-1" edge="1">
          <mxGeometry width="50" height="50" relative="1" as="geometry">
            <mxPoint x="540" y="373" as="sourcePoint" />
            <mxPoint x="635" y="235" as="targetPoint" />
          </mxGeometry>
        </mxCell>
        <mxCell id="GsyQB7fWWpii9giGA216-1" value="id_login" style="ellipse;whiteSpace=wrap;html=1;align=center;" vertex="1" parent="1">
          <mxGeometry x="710" y="205" width="100" height="40" as="geometry" />
        </mxCell>
        <mxCell id="GsyQB7fWWpii9giGA216-3" value="" style="endArrow=none;html=1;rounded=0;exitX=0;exitY=0.5;exitDx=0;exitDy=0;entryX=1;entryY=0.75;entryDx=0;entryDy=0;" edge="1" parent="1" source="GsyQB7fWWpii9giGA216-1" target="faee4oYJQFopLsKv9gLG-1">
          <mxGeometry width="50" height="50" relative="1" as="geometry">
            <mxPoint x="430" y="300" as="sourcePoint" />
            <mxPoint x="480" y="250" as="targetPoint" />
          </mxGeometry>
        </mxCell>
      </root>
    </mxGraphModel>
  </diagram>
</mxfile>
